<mxfile host="app.diagrams.net" modified="2024-03-18T03:52:43.524Z" agent="Mozilla/5.0 (Macintosh; Intel Mac OS X 10_15_7) AppleWebKit/537.36 (KHTML, like Gecko) Chrome/122.0.0.0 Safari/537.36" etag="S4RgCIPDvvwDfuLsoxgJ" version="24.0.7" type="github">
  <diagram name="第 1 页" id="-O22PTuOTXJW1L3QAIRa">
    <mxGraphModel dx="1026" dy="561" grid="1" gridSize="10" guides="1" tooltips="1" connect="1" arrows="1" fold="1" page="1" pageScale="1" pageWidth="827" pageHeight="1169" math="0" shadow="0">
      <root>
        <mxCell id="0" />
        <mxCell id="1" parent="0" />
        <mxCell id="Y-PrGRjsFWBHNaAx-tia-7" style="edgeStyle=orthogonalEdgeStyle;rounded=0;orthogonalLoop=1;jettySize=auto;html=1;exitX=1;exitY=0.5;exitDx=0;exitDy=0;" parent="1" source="Y-PrGRjsFWBHNaAx-tia-3" target="Y-PrGRjsFWBHNaAx-tia-4" edge="1">
          <mxGeometry relative="1" as="geometry" />
        </mxCell>
        <mxCell id="Y-PrGRjsFWBHNaAx-tia-3" value="无锁" style="rounded=1;whiteSpace=wrap;html=1;fontSize=16;" parent="1" vertex="1">
          <mxGeometry x="100" y="220" width="120" height="60" as="geometry" />
        </mxCell>
        <mxCell id="Y-PrGRjsFWBHNaAx-tia-8" style="edgeStyle=orthogonalEdgeStyle;rounded=0;orthogonalLoop=1;jettySize=auto;html=1;exitX=1;exitY=0.5;exitDx=0;exitDy=0;" parent="1" source="Y-PrGRjsFWBHNaAx-tia-4" target="Y-PrGRjsFWBHNaAx-tia-5" edge="1">
          <mxGeometry relative="1" as="geometry" />
        </mxCell>
        <mxCell id="Y-PrGRjsFWBHNaAx-tia-4" value="偏向锁" style="rounded=1;whiteSpace=wrap;html=1;fontSize=16;" parent="1" vertex="1">
          <mxGeometry x="294" y="220" width="120" height="60" as="geometry" />
        </mxCell>
        <mxCell id="Y-PrGRjsFWBHNaAx-tia-9" style="edgeStyle=orthogonalEdgeStyle;rounded=0;orthogonalLoop=1;jettySize=auto;html=1;exitX=1;exitY=0.5;exitDx=0;exitDy=0;" parent="1" source="Y-PrGRjsFWBHNaAx-tia-5" target="Y-PrGRjsFWBHNaAx-tia-6" edge="1">
          <mxGeometry relative="1" as="geometry" />
        </mxCell>
        <mxCell id="Y-PrGRjsFWBHNaAx-tia-5" value="轻量级锁" style="rounded=1;whiteSpace=wrap;html=1;fontSize=16;" parent="1" vertex="1">
          <mxGeometry x="500" y="220" width="120" height="60" as="geometry" />
        </mxCell>
        <mxCell id="Y-PrGRjsFWBHNaAx-tia-6" value="重量级锁" style="rounded=1;whiteSpace=wrap;html=1;fontSize=16;" parent="1" vertex="1">
          <mxGeometry x="680" y="220" width="120" height="60" as="geometry" />
        </mxCell>
        <mxCell id="Y-PrGRjsFWBHNaAx-tia-10" value="一个线程持有锁资源" style="text;html=1;align=center;verticalAlign=middle;whiteSpace=wrap;rounded=0;" parent="1" vertex="1">
          <mxGeometry x="200" y="180" width="116" height="30" as="geometry" />
        </mxCell>
        <mxCell id="Y-PrGRjsFWBHNaAx-tia-11" value="对象Mark Word字段中写入线程ID" style="text;html=1;align=center;verticalAlign=middle;whiteSpace=wrap;rounded=0;" parent="1" vertex="1">
          <mxGeometry x="262" y="300" width="184" height="30" as="geometry" />
        </mxCell>
        <mxCell id="Y-PrGRjsFWBHNaAx-tia-12" value="多个线程竞争资源" style="text;html=1;align=center;verticalAlign=middle;whiteSpace=wrap;rounded=0;" parent="1" vertex="1">
          <mxGeometry x="400" y="180" width="100" height="30" as="geometry" />
        </mxCell>
        <mxCell id="Y-PrGRjsFWBHNaAx-tia-13" value="Mark Word指针指向线程栈中的Lock Recod" style="text;html=1;align=center;verticalAlign=middle;whiteSpace=wrap;rounded=0;" parent="1" vertex="1">
          <mxGeometry x="495" y="300" width="130" height="30" as="geometry" />
        </mxCell>
        <mxCell id="Y-PrGRjsFWBHNaAx-tia-14" value="长时间自旋失败&lt;div&gt;三个线程竞争&lt;/div&gt;" style="text;html=1;align=center;verticalAlign=middle;whiteSpace=wrap;rounded=0;" parent="1" vertex="1">
          <mxGeometry x="600" y="180" width="100" height="30" as="geometry" />
        </mxCell>
        <mxCell id="Y-PrGRjsFWBHNaAx-tia-15" value="Mark Word指针指向Moniter&lt;div&gt;MoniterEnter MoniterExit&lt;/div&gt;&lt;div&gt;由操作系统内核态控制&lt;/div&gt;" style="text;html=1;align=center;verticalAlign=middle;whiteSpace=wrap;rounded=0;" parent="1" vertex="1">
          <mxGeometry x="660" y="290" width="160" height="50" as="geometry" />
        </mxCell>
      </root>
    </mxGraphModel>
  </diagram>
</mxfile>
